<svg width="1306" height="331" viewBox="0 0 1306 331" fill="none" xmlns="http://www.w3.org/2000/svg">
<path d="M-24.3867 329.979L62.8411 252.683V182.297H157.842L250.251 122.273H313.729M989.96 123.137H1088.42L1195.94 202.592H1277.98V278.593L1343.19 310.547" stroke="white" stroke-opacity="0.6" stroke-width="0.5" stroke-dasharray="4.32 4.32"/>
<path d="M996.004 121.312L1088.52 87.6379L1216.74 125.526L1293.83 97.4646L1319.83 168.882L1392.03 176.608" stroke="white" stroke-opacity="0.6" stroke-width="0.5" stroke-dasharray="4.32 4.32"/>
<path d="M317.436 99.8971V130.046H311.974V99.8971H317.436ZM328.444 116.797V130.046H323.115V107.434H328.208V111.277H328.473C328.993 110.011 329.823 109.005 330.961 108.259C332.109 107.513 333.527 107.14 335.215 107.14C336.776 107.14 338.135 107.474 339.293 108.141C340.461 108.808 341.364 109.775 342.002 111.041C342.65 112.307 342.969 113.843 342.959 115.649V130.046H337.63V116.473C337.63 114.962 337.237 113.779 336.452 112.925C335.677 112.071 334.602 111.645 333.228 111.645C332.296 111.645 331.466 111.851 330.74 112.263C330.024 112.665 329.459 113.249 329.047 114.015C328.645 114.78 328.444 115.708 328.444 116.797ZM366.248 113.411L361.39 113.941C361.252 113.45 361.012 112.989 360.668 112.557C360.335 112.125 359.883 111.777 359.314 111.512C358.745 111.247 358.048 111.115 357.224 111.115C356.115 111.115 355.182 111.355 354.427 111.836C353.681 112.317 353.313 112.94 353.322 113.706C353.313 114.363 353.553 114.898 354.044 115.31C354.544 115.722 355.369 116.061 356.517 116.326L360.374 117.15C362.513 117.612 364.103 118.343 365.144 119.344C366.194 120.345 366.724 121.655 366.733 123.274C366.724 124.697 366.306 125.954 365.482 127.043C364.668 128.122 363.534 128.966 362.082 129.575C360.629 130.183 358.961 130.488 357.076 130.488C354.309 130.488 352.081 129.909 350.393 128.751C348.705 127.583 347.699 125.958 347.375 123.878L352.572 123.377C352.807 124.398 353.308 125.168 354.073 125.689C354.839 126.209 355.835 126.469 357.062 126.469C358.328 126.469 359.343 126.209 360.109 125.689C360.884 125.168 361.272 124.526 361.272 123.76C361.272 123.112 361.022 122.578 360.521 122.155C360.03 121.733 359.265 121.41 358.225 121.184L354.368 120.374C352.199 119.923 350.594 119.162 349.554 118.092C348.514 117.013 347.998 115.649 348.008 114C347.998 112.606 348.376 111.399 349.142 110.379C349.917 109.348 350.992 108.553 352.366 107.994C353.749 107.425 355.344 107.14 357.15 107.14C359.8 107.14 361.885 107.704 363.406 108.833C364.937 109.961 365.884 111.488 366.248 113.411ZM382.419 107.434V111.556H369.42V107.434H382.419ZM372.629 102.017H377.958V123.245C377.958 123.961 378.066 124.511 378.282 124.894C378.508 125.267 378.802 125.522 379.165 125.659C379.529 125.797 379.931 125.865 380.373 125.865C380.706 125.865 381.01 125.841 381.285 125.792C381.57 125.743 381.786 125.698 381.933 125.659L382.831 129.825C382.546 129.923 382.139 130.031 381.609 130.149C381.089 130.267 380.451 130.336 379.695 130.355C378.361 130.394 377.158 130.193 376.089 129.752C375.019 129.3 374.17 128.603 373.542 127.661C372.924 126.719 372.619 125.541 372.629 124.128V102.017ZM393.382 130.502C391.95 130.502 390.659 130.247 389.511 129.737C388.372 129.217 387.469 128.451 386.802 127.44C386.144 126.43 385.816 125.183 385.816 123.701C385.816 122.425 386.051 121.37 386.522 120.536C386.993 119.702 387.636 119.035 388.451 118.534C389.265 118.034 390.183 117.656 391.204 117.401C392.234 117.136 393.299 116.944 394.398 116.826C395.723 116.689 396.798 116.566 397.622 116.458C398.446 116.341 399.045 116.164 399.418 115.928C399.801 115.683 399.992 115.305 399.992 114.795V114.707C399.992 113.598 399.663 112.739 399.006 112.13C398.348 111.522 397.401 111.218 396.165 111.218C394.859 111.218 393.824 111.502 393.059 112.072C392.303 112.641 391.793 113.313 391.528 114.088L386.552 113.382C386.944 112.008 387.592 110.859 388.495 109.937C389.398 109.005 390.502 108.308 391.807 107.847C393.112 107.375 394.555 107.14 396.135 107.14C397.225 107.14 398.309 107.267 399.389 107.523C400.468 107.778 401.454 108.2 402.348 108.789C403.241 109.368 403.957 110.158 404.497 111.159C405.046 112.16 405.321 113.411 405.321 114.913V130.046H400.198V126.94H400.022C399.698 127.568 399.241 128.157 398.653 128.706C398.074 129.246 397.342 129.683 396.459 130.017C395.586 130.34 394.56 130.502 393.382 130.502ZM394.766 126.587C395.836 126.587 396.763 126.376 397.548 125.954C398.334 125.522 398.937 124.953 399.359 124.246C399.791 123.539 400.007 122.769 400.007 121.935V119.27C399.84 119.408 399.555 119.535 399.153 119.653C398.761 119.771 398.319 119.874 397.828 119.962C397.337 120.05 396.852 120.129 396.371 120.198C395.89 120.266 395.473 120.325 395.119 120.374C394.325 120.482 393.613 120.659 392.985 120.904C392.357 121.15 391.861 121.493 391.498 121.935C391.135 122.366 390.953 122.926 390.953 123.613C390.953 124.594 391.312 125.335 392.028 125.836C392.744 126.336 393.657 126.587 394.766 126.587ZM416.009 116.797V130.046H410.68V107.434H415.773V111.277H416.038C416.558 110.011 417.388 109.005 418.526 108.259C419.674 107.513 421.093 107.14 422.781 107.14C424.341 107.14 425.7 107.474 426.858 108.141C428.026 108.808 428.929 109.775 429.567 111.041C430.215 112.307 430.534 113.843 430.524 115.649V130.046H425.195V116.473C425.195 114.962 424.802 113.779 424.017 112.925C423.242 112.071 422.167 111.645 420.793 111.645C419.861 111.645 419.032 111.851 418.305 112.263C417.589 112.665 417.025 113.249 416.612 114.015C416.21 114.78 416.009 115.708 416.009 116.797ZM447.232 107.434V111.556H434.234V107.434H447.232ZM437.443 102.017H442.772V123.245C442.772 123.961 442.88 124.511 443.096 124.894C443.321 125.267 443.616 125.522 443.979 125.659C444.342 125.797 444.745 125.865 445.186 125.865C445.52 125.865 445.824 125.841 446.099 125.792C446.383 125.743 446.599 125.698 446.747 125.659L447.645 129.825C447.36 129.923 446.953 130.031 446.423 130.149C445.903 130.267 445.265 130.336 444.509 130.355C443.174 130.394 441.972 130.193 440.902 129.752C439.833 129.3 438.984 128.603 438.356 127.661C437.737 126.719 437.433 125.541 437.443 124.128V102.017ZM457.504 99.8971V130.046H452.175V99.8971H457.504ZM466.296 138.525C465.57 138.525 464.898 138.467 464.279 138.349C463.671 138.241 463.185 138.113 462.822 137.966L464.059 133.815C464.834 134.04 465.526 134.148 466.134 134.139C466.743 134.129 467.278 133.937 467.739 133.564C468.21 133.201 468.608 132.593 468.931 131.739L469.388 130.517L461.188 107.434H466.841L472.052 124.511H472.288L477.514 107.434H483.181L474.128 132.784C473.706 133.981 473.147 135.007 472.45 135.861C471.753 136.725 470.899 137.382 469.888 137.834C468.887 138.295 467.69 138.525 466.296 138.525ZM523.194 110.069H517.688C517.531 109.167 517.241 108.367 516.819 107.67C516.397 106.963 515.872 106.365 515.244 105.874C514.616 105.383 513.9 105.015 513.095 104.77C512.3 104.515 511.441 104.387 510.519 104.387C508.88 104.387 507.427 104.799 506.161 105.624C504.895 106.438 503.904 107.636 503.188 109.216C502.471 110.786 502.113 112.705 502.113 114.972C502.113 117.278 502.471 119.221 503.188 120.801C503.914 122.371 504.905 123.559 506.161 124.364C507.427 125.159 508.875 125.556 510.504 125.556C511.407 125.556 512.251 125.438 513.036 125.203C513.831 124.957 514.542 124.599 515.171 124.128C515.808 123.657 516.343 123.078 516.775 122.391C517.217 121.704 517.521 120.919 517.688 120.036L523.194 120.065C522.987 121.498 522.541 122.842 521.854 124.099C521.177 125.355 520.289 126.464 519.189 127.426C518.09 128.378 516.805 129.124 515.332 129.663C513.86 130.193 512.226 130.458 510.43 130.458C507.781 130.458 505.415 129.845 503.335 128.618C501.254 127.391 499.615 125.62 498.418 123.304C497.221 120.988 496.622 118.21 496.622 114.972C496.622 111.723 497.225 108.946 498.433 106.639C499.64 104.323 501.284 102.552 503.364 101.325C505.445 100.098 507.8 99.4849 510.43 99.4849C512.109 99.4849 513.669 99.7204 515.112 100.192C516.554 100.663 517.84 101.354 518.969 102.267C520.097 103.17 521.025 104.279 521.751 105.594C522.487 106.899 522.968 108.391 523.194 110.069ZM537.823 130.488C535.615 130.488 533.701 130.002 532.081 129.03C530.462 128.059 529.206 126.699 528.313 124.953C527.43 123.206 526.988 121.164 526.988 118.829C526.988 116.493 527.43 114.447 528.313 112.69C529.206 110.933 530.462 109.569 532.081 108.597C533.701 107.626 535.615 107.14 537.823 107.14C540.031 107.14 541.945 107.626 543.564 108.597C545.183 109.569 546.435 110.933 547.318 112.69C548.211 114.447 548.657 116.493 548.657 118.829C548.657 121.164 548.211 123.206 547.318 124.953C546.435 126.699 545.183 128.059 543.564 129.03C541.945 130.002 540.031 130.488 537.823 130.488ZM537.852 126.219C539.049 126.219 540.051 125.89 540.855 125.232C541.66 124.565 542.259 123.672 542.651 122.553C543.054 121.434 543.255 120.188 543.255 118.814C543.255 117.43 543.054 116.179 542.651 115.06C542.259 113.931 541.66 113.033 540.855 112.366C540.051 111.699 539.049 111.365 537.852 111.365C536.625 111.365 535.605 111.699 534.79 112.366C533.985 113.033 533.382 113.931 532.979 115.06C532.587 116.179 532.391 117.43 532.391 118.814C532.391 120.188 532.587 121.434 532.979 122.553C533.382 123.672 533.985 124.565 534.79 125.232C535.605 125.89 536.625 126.219 537.852 126.219ZM558.51 116.797V130.046H553.181V107.434H558.274V111.277H558.539C559.059 110.011 559.889 109.005 561.027 108.259C562.175 107.513 563.593 107.14 565.281 107.14C566.842 107.14 568.201 107.474 569.359 108.141C570.527 108.808 571.43 109.775 572.068 111.041C572.716 112.307 573.035 113.843 573.025 115.649V130.046H567.696V116.473C567.696 114.962 567.303 113.779 566.518 112.925C565.743 112.071 564.668 111.645 563.294 111.645C562.362 111.645 561.532 111.851 560.806 112.263C560.09 112.665 559.525 113.249 559.113 114.015C558.711 114.78 558.51 115.708 558.51 116.797ZM583.771 116.797V130.046H578.442V107.434H583.536V111.277H583.801C584.321 110.011 585.15 109.005 586.288 108.259C587.437 107.513 588.855 107.14 590.543 107.14C592.103 107.14 593.463 107.474 594.621 108.141C595.789 108.808 596.691 109.775 597.329 111.041C597.977 112.307 598.296 113.843 598.286 115.649V130.046H592.957V116.473C592.957 114.962 592.565 113.779 591.779 112.925C591.004 112.071 589.929 111.645 588.556 111.645C587.623 111.645 586.794 111.851 586.068 112.263C585.351 112.665 584.787 113.249 584.375 114.015C583.972 114.78 583.771 115.708 583.771 116.797ZM613.714 130.488C611.447 130.488 609.489 130.017 607.84 129.074C606.201 128.122 604.94 126.778 604.057 125.041C603.174 123.294 602.732 121.238 602.732 118.873C602.732 116.547 603.174 114.505 604.057 112.749C604.95 110.982 606.196 109.608 607.796 108.627C609.396 107.636 611.275 107.14 613.434 107.14C614.828 107.14 616.143 107.366 617.38 107.817C618.626 108.259 619.725 108.946 620.677 109.878C621.639 110.81 622.395 111.998 622.944 113.441C623.494 114.873 623.769 116.581 623.769 118.564V120.198H605.235V116.606H618.66C618.65 115.585 618.43 114.677 617.998 113.882C617.566 113.077 616.962 112.444 616.187 111.983C615.422 111.522 614.529 111.291 613.508 111.291C612.419 111.291 611.462 111.556 610.637 112.086C609.813 112.606 609.17 113.293 608.709 114.147C608.257 114.991 608.027 115.919 608.017 116.929V120.065C608.017 121.38 608.257 122.509 608.738 123.451C609.219 124.383 609.891 125.1 610.755 125.6C611.619 126.091 612.63 126.336 613.788 126.336C614.563 126.336 615.265 126.228 615.893 126.012C616.521 125.787 617.065 125.458 617.527 125.026C617.988 124.594 618.336 124.059 618.572 123.422L623.548 123.981C623.234 125.296 622.635 126.444 621.752 127.426C620.878 128.397 619.759 129.153 618.395 129.693C617.031 130.223 615.471 130.488 613.714 130.488ZM638.14 130.488C635.883 130.488 633.945 129.992 632.325 129.001C630.716 128.01 629.474 126.641 628.601 124.894C627.737 123.137 627.305 121.115 627.305 118.829C627.305 116.532 627.747 114.505 628.63 112.749C629.513 110.982 630.76 109.608 632.369 108.627C633.989 107.636 635.902 107.14 638.111 107.14C639.946 107.14 641.57 107.478 642.983 108.156C644.406 108.823 645.54 109.77 646.384 110.997C647.228 112.214 647.709 113.637 647.827 115.266H642.733C642.527 114.177 642.036 113.269 641.261 112.543C640.495 111.807 639.47 111.438 638.184 111.438C637.095 111.438 636.138 111.733 635.314 112.322C634.489 112.901 633.846 113.735 633.385 114.824C632.934 115.914 632.708 117.219 632.708 118.74C632.708 120.281 632.934 121.606 633.385 122.715C633.837 123.814 634.47 124.663 635.284 125.262C636.109 125.851 637.075 126.145 638.184 126.145C638.969 126.145 639.671 125.998 640.289 125.703C640.917 125.399 641.443 124.962 641.865 124.393C642.287 123.824 642.576 123.132 642.733 122.317H647.827C647.699 123.917 647.228 125.335 646.413 126.572C645.599 127.799 644.49 128.76 643.086 129.457C641.683 130.144 640.034 130.488 638.14 130.488ZM663.494 107.434V111.556H650.495V107.434H663.494ZM653.704 102.017H659.033V123.245C659.033 123.961 659.141 124.511 659.357 124.894C659.583 125.267 659.877 125.522 660.24 125.659C660.603 125.797 661.006 125.865 661.447 125.865C661.781 125.865 662.085 125.841 662.36 125.792C662.645 125.743 662.861 125.698 663.008 125.659L663.906 129.825C663.621 129.923 663.214 130.031 662.684 130.149C662.164 130.267 661.526 130.336 660.77 130.355C659.435 130.394 658.233 130.193 657.163 129.752C656.094 129.3 655.245 128.603 654.617 127.661C653.998 126.719 653.694 125.541 653.704 124.128V102.017ZM682.9 130.046L676.511 107.434H681.943L685.918 123.333H686.124L690.187 107.434H695.56L699.623 123.245H699.844L703.76 107.434H709.206L702.803 130.046H697.253L693.013 114.765H692.704L688.464 130.046H682.9ZM712.927 130.046V107.434H718.256V130.046H712.927ZM715.606 104.225C714.762 104.225 714.036 103.945 713.428 103.386C712.819 102.817 712.515 102.135 712.515 101.34C712.515 100.535 712.819 99.8529 713.428 99.2935C714.036 98.7243 714.762 98.4397 715.606 98.4397C716.46 98.4397 717.187 98.7243 717.785 99.2935C718.394 99.8529 718.698 100.535 718.698 101.34C718.698 102.135 718.394 102.817 717.785 103.386C717.187 103.945 716.46 104.225 715.606 104.225ZM735.027 107.434V111.556H722.029V107.434H735.027ZM725.238 102.017H730.567V123.245C730.567 123.961 730.675 124.511 730.891 124.894C731.116 125.267 731.411 125.522 731.774 125.659C732.137 125.797 732.539 125.865 732.981 125.865C733.315 125.865 733.619 125.841 733.894 125.792C734.178 125.743 734.394 125.698 734.542 125.659L735.44 129.825C735.155 129.923 734.748 130.031 734.218 130.149C733.698 130.267 733.06 130.336 732.304 130.355C730.969 130.394 729.767 130.193 728.697 129.752C727.628 129.3 726.779 128.603 726.151 127.661C725.532 126.719 725.228 125.541 725.238 124.128V102.017ZM745.299 116.797V130.046H739.97V99.8971H745.181V111.277H745.446C745.976 110.001 746.796 108.995 747.905 108.259C749.024 107.513 750.447 107.14 752.174 107.14C753.744 107.14 755.113 107.469 756.281 108.126C757.449 108.784 758.352 109.746 758.99 111.012C759.637 112.278 759.961 113.823 759.961 115.649V130.046H754.632V116.473C754.632 114.952 754.24 113.769 753.455 112.925C752.679 112.071 751.59 111.645 750.186 111.645C749.244 111.645 748.4 111.851 747.654 112.263C746.918 112.665 746.339 113.249 745.917 114.015C745.505 114.78 745.299 115.708 745.299 116.797ZM773.851 99.8971H780.019L787.394 113.234H787.689L795.064 99.8971H801.232L790.265 118.799V130.046H784.818V118.799L773.851 99.8971ZM810.517 130.488C808.309 130.488 806.396 130.002 804.776 129.03C803.157 128.059 801.901 126.699 801.008 124.953C800.124 123.206 799.683 121.164 799.683 118.829C799.683 116.493 800.124 114.447 801.008 112.69C801.901 110.933 803.157 109.569 804.776 108.597C806.396 107.626 808.309 107.14 810.517 107.14C812.726 107.14 814.639 107.626 816.259 108.597C817.878 109.569 819.129 110.933 820.013 112.69C820.906 114.447 821.352 116.493 821.352 118.829C821.352 121.164 820.906 123.206 820.013 124.953C819.129 126.699 817.878 128.059 816.259 129.03C814.639 130.002 812.726 130.488 810.517 130.488ZM810.547 126.219C811.744 126.219 812.745 125.89 813.55 125.232C814.355 124.565 814.953 123.672 815.346 122.553C815.748 121.434 815.95 120.188 815.95 118.814C815.95 117.43 815.748 116.179 815.346 115.06C814.953 113.931 814.355 113.033 813.55 112.366C812.745 111.699 811.744 111.365 810.547 111.365C809.32 111.365 808.299 111.699 807.485 112.366C806.68 113.033 806.077 113.931 805.674 115.06C805.282 116.179 805.085 117.43 805.085 118.814C805.085 120.188 805.282 121.434 805.674 122.553C806.077 123.672 806.68 124.565 807.485 125.232C808.299 125.89 809.32 126.219 810.547 126.219ZM840.287 120.536V107.434H845.616V130.046H840.449V126.027H840.214C839.703 127.293 838.864 128.329 837.696 129.133C836.538 129.938 835.11 130.34 833.413 130.34C831.931 130.34 830.62 130.012 829.482 129.354C828.353 128.687 827.47 127.72 826.832 126.454C826.194 125.178 825.875 123.637 825.875 121.832V107.434H831.204V121.007C831.204 122.44 831.597 123.579 832.382 124.423C833.167 125.267 834.198 125.689 835.474 125.689C836.259 125.689 837.019 125.497 837.755 125.114C838.491 124.732 839.095 124.162 839.566 123.407C840.047 122.641 840.287 121.684 840.287 120.536ZM851.096 130.046V107.434H856.263V111.203H856.499C856.911 109.898 857.618 108.892 858.619 108.185C859.63 107.469 860.783 107.11 862.078 107.11C862.373 107.11 862.702 107.125 863.065 107.155C863.438 107.174 863.747 107.209 863.992 107.258V112.16C863.766 112.081 863.408 112.013 862.917 111.954C862.437 111.885 861.97 111.851 861.519 111.851C860.547 111.851 859.674 112.062 858.899 112.484C858.133 112.896 857.529 113.47 857.088 114.206C856.646 114.942 856.425 115.791 856.425 116.753V130.046H851.096ZM878.051 130.046V99.8971H883.512V125.468H896.791V130.046H878.051ZM911.306 130.488C909.039 130.488 907.081 130.017 905.432 129.074C903.793 128.122 902.532 126.778 901.649 125.041C900.766 123.294 900.324 121.238 900.324 118.873C900.324 116.547 900.766 114.505 901.649 112.749C902.542 110.982 903.788 109.608 905.388 108.627C906.988 107.636 908.867 107.14 911.026 107.14C912.42 107.14 913.735 107.366 914.971 107.817C916.218 108.259 917.317 108.946 918.269 109.878C919.231 110.81 919.986 111.998 920.536 113.441C921.086 114.873 921.36 116.581 921.36 118.564V120.198H902.826V116.606H916.252C916.242 115.585 916.022 114.677 915.59 113.882C915.158 113.077 914.554 112.444 913.779 111.983C913.014 111.522 912.12 111.291 911.1 111.291C910.01 111.291 909.054 111.556 908.229 112.086C907.405 112.606 906.762 113.293 906.301 114.147C905.849 114.991 905.619 115.919 905.609 116.929V120.065C905.609 121.38 905.849 122.509 906.33 123.451C906.811 124.383 907.483 125.1 908.347 125.6C909.211 126.091 910.221 126.336 911.379 126.336C912.155 126.336 912.856 126.228 913.485 126.012C914.113 125.787 914.657 125.458 915.119 125.026C915.58 124.594 915.928 124.059 916.164 123.422L921.14 123.981C920.826 125.296 920.227 126.444 919.344 127.426C918.47 128.397 917.351 129.153 915.987 129.693C914.623 130.223 913.063 130.488 911.306 130.488ZM932.376 130.502C930.943 130.502 929.652 130.247 928.504 129.737C927.365 129.217 926.463 128.451 925.795 127.44C925.138 126.43 924.809 125.183 924.809 123.701C924.809 122.425 925.044 121.37 925.515 120.536C925.987 119.702 926.629 119.035 927.444 118.534C928.259 118.034 929.176 117.656 930.197 117.401C931.227 117.136 932.292 116.944 933.391 116.826C934.716 116.689 935.791 116.566 936.615 116.458C937.44 116.341 938.038 116.164 938.411 115.928C938.794 115.683 938.985 115.305 938.985 114.795V114.707C938.985 113.598 938.657 112.739 937.999 112.13C937.341 111.522 936.394 111.218 935.158 111.218C933.853 111.218 932.817 111.502 932.052 112.072C931.296 112.641 930.786 113.313 930.521 114.088L925.545 113.382C925.937 112.008 926.585 110.859 927.488 109.937C928.391 109.005 929.495 108.308 930.8 107.847C932.106 107.375 933.548 107.14 935.128 107.14C936.218 107.14 937.302 107.267 938.382 107.523C939.461 107.778 940.448 108.2 941.341 108.789C942.234 109.368 942.95 110.158 943.49 111.159C944.04 112.16 944.314 113.411 944.314 114.913V130.046H939.191V126.94H939.015C938.691 127.568 938.235 128.157 937.646 128.706C937.067 129.246 936.336 129.683 935.452 130.017C934.579 130.34 933.553 130.502 932.376 130.502ZM933.759 126.587C934.829 126.587 935.756 126.376 936.542 125.954C937.327 125.522 937.93 124.953 938.352 124.246C938.784 123.539 939 122.769 939 121.935V119.27C938.833 119.408 938.549 119.535 938.146 119.653C937.754 119.771 937.312 119.874 936.821 119.962C936.331 120.05 935.845 120.129 935.364 120.198C934.883 120.266 934.466 120.325 934.113 120.374C933.318 120.482 932.606 120.659 931.978 120.904C931.35 121.15 930.854 121.493 930.491 121.935C930.128 122.366 929.947 122.926 929.947 123.613C929.947 124.594 930.305 125.335 931.021 125.836C931.738 126.336 932.65 126.587 933.759 126.587ZM958.064 130.444C956.288 130.444 954.698 129.987 953.294 129.074C951.891 128.162 950.782 126.837 949.967 125.1C949.153 123.363 948.745 121.253 948.745 118.77C948.745 116.257 949.158 114.137 949.982 112.41C950.816 110.673 951.94 109.363 953.353 108.48C954.766 107.586 956.342 107.14 958.079 107.14C959.404 107.14 960.493 107.366 961.347 107.817C962.201 108.259 962.878 108.794 963.378 109.422C963.879 110.04 964.266 110.624 964.541 111.174H964.762V99.8971H970.106V130.046H964.865V126.484H964.541C964.266 127.033 963.869 127.617 963.349 128.235C962.829 128.844 962.142 129.364 961.288 129.796C960.434 130.228 959.359 130.444 958.064 130.444ZM959.551 126.071C960.679 126.071 961.641 125.767 962.436 125.159C963.231 124.54 963.835 123.682 964.247 122.582C964.659 121.483 964.865 120.202 964.865 118.74C964.865 117.278 964.659 116.007 964.247 114.927C963.844 113.848 963.246 113.009 962.451 112.41C961.666 111.811 960.699 111.512 959.551 111.512C958.363 111.512 957.372 111.821 956.577 112.44C955.782 113.058 955.184 113.912 954.781 115.001C954.379 116.09 954.178 117.337 954.178 118.74C954.178 120.153 954.379 121.415 954.781 122.524C955.193 123.623 955.797 124.491 956.592 125.129C957.397 125.757 958.383 126.071 959.551 126.071ZM993.656 113.411L988.798 113.941C988.661 113.45 988.42 112.989 988.077 112.557C987.743 112.125 987.292 111.777 986.722 111.512C986.153 111.247 985.456 111.115 984.632 111.115C983.523 111.115 982.591 111.355 981.835 111.836C981.089 112.317 980.721 112.94 980.731 113.706C980.721 114.363 980.961 114.898 981.452 115.31C981.953 115.722 982.777 116.061 983.925 116.326L987.782 117.15C989.922 117.612 991.512 118.343 992.552 119.344C993.602 120.345 994.132 121.655 994.142 123.274C994.132 124.697 993.715 125.954 992.891 127.043C992.076 128.122 990.942 128.966 989.49 129.575C988.037 130.183 986.369 130.488 984.485 130.488C981.717 130.488 979.489 129.909 977.801 128.751C976.113 127.583 975.107 125.958 974.784 123.878L979.98 123.377C980.216 124.398 980.716 125.168 981.482 125.689C982.247 126.209 983.243 126.469 984.47 126.469C985.736 126.469 986.752 126.209 987.517 125.689C988.293 125.168 988.68 124.526 988.68 123.76C988.68 123.112 988.43 122.578 987.93 122.155C987.439 121.733 986.673 121.41 985.633 121.184L981.776 120.374C979.607 119.923 978.003 119.162 976.962 118.092C975.922 117.013 975.407 115.649 975.417 114C975.407 112.606 975.785 111.399 976.55 110.379C977.325 109.348 978.4 108.553 979.774 107.994C981.158 107.425 982.753 107.14 984.558 107.14C987.208 107.14 989.294 107.704 990.815 108.833C992.346 109.961 993.293 111.488 993.656 113.411Z" fill="white"/>
<path d="M-71.229 199.134L37.1751 156.334L61.2488 90.1917L150.52 122.684L257.886 97.8865L317.535 119.597" stroke="white" stroke-opacity="0.6" stroke-width="0.5" stroke-dasharray="4.32 4.32"/>
</svg>
