<svg xmlns="http://www.w3.org/2000/svg" width="24" height="16" viewBox="0 0 24 16" fill="none">
  <path d="M16.0214 8.0456L19.9359 11.9602L16.0214 15.8748L12.1068 11.9602L16.0214 8.0456Z" fill="#BC4749"/>
  <path d="M8.18842 8.04207L12.1013 11.9549L8.18842 15.8678L4.27557 11.9549L8.18842 8.04207Z" fill="#161616"/>
  <rect x="12.1124" y="4.13454" width="5.541" height="5.541" transform="rotate(45 12.1124 4.13454)" fill="#BC4749"/>
  <rect x="4.28326" y="4.13454" width="5.541" height="5.541" transform="rotate(45 4.28326 4.13454)" fill="#BC4749"/>
  <path d="M16.0251 0.216665L19.9432 4.13475L16.0251 8.05283L12.107 4.13475L16.0251 0.216665Z" fill="white"/>
  <path d="M8.19598 0.216665L12.1141 4.13475L8.19598 8.05283L4.2779 4.13475L8.19598 0.216665Z" fill="#BC4749"/>
  <rect x="19.9397" y="4.13125" width="5.541" height="5.541" transform="rotate(45 19.9397 4.13125)" fill="#BC4749"/>
  <path d="M12.1124 4.13125L16.0305 8.04933L12.1124 11.9674L8.19435 8.04933L12.1124 4.13125Z" fill="#BC4749"/>
</svg>